<svg width="601" height="600" viewBox="0 0 601 600" fill="none" xmlns="http://www.w3.org/2000/svg">
<path d="M593 300C593 461.267 462.267 592 301 592C139.733 592 9 461.267 9 300C9 138.733 139.733 8 301 8C462.267 8 593 138.733 593 300Z" fill="white" stroke="#F24150" stroke-width="16"/>
<line x1="0.986644" y1="292" x2="600.986" y2="290.998" stroke="#F24150" stroke-width="16"/>
<line x1="309" y1="4.16022e-07" x2="309" y2="600" stroke="#F24150" stroke-width="16"/>
<path d="M488.5 299.5C488.5 195.947 404.553 112 301 112" stroke="#F24150" stroke-width="16"/>
<line x1="317.313" y1="300.111" x2="507.694" y2="494.269" stroke="#F24150" stroke-width="16" stroke-linecap="square"/>
<path d="M42 435.338C66.8937 422.254 131.998 403.937 193.265 435.338C215.146 443.384 268.326 454.648 306 435.338" stroke="#F24150" stroke-width="16"/>
<line x1="197" y1="23" x2="197" y2="299" stroke="#F24150" stroke-width="16"/>
</svg>
